# xmcd
# 
# Track frame offsets:
#     150
#     12265
#     25064
#     38728
#     55391
#     74401
#     99649
#     114991
# 
# Disc length: 1976
# 
# Revision: 0
# Processed by: cddbd v1.5.2PL0 Copyright (c) Steve Scherf et al.
# Submitted via: fre:ac v1.0.17
# 
DISCID=6207b608
DTITLE=Nailed Shut - Indecent Disposal
DYEAR=2009
DGENRE=Death Metal
TTITLE0=Nailed Fucking Shut
TTITLE1=Hyopcritical Persecution
TTITLE2=A Hearse Named Desire
TTITLE3=What Happens in the Graveyard, Stays in the Graveyard
TTITLE4=Killer of Killers
TTITLE5=Cadaverous Canvas
TTITLE6=Indecisive Divide
TTITLE7=A Rather Unwanted Gift
EXTD=
EXTT0=
EXTT1=
EXTT2=
EXTT3=
EXTT4=
EXTT5=
EXTT6=
EXTT7=
PLAYORDER=
